<?xml version="1.0" standalone="no"?>
<!DOCTYPE svg PUBLIC "-//W3C//DTD SVG 20010904//EN"
 "http://www.w3.org/TR/2001/REC-SVG-20010904/DTD/svg10.dtd">
<svg version="1.0" xmlns="http://www.w3.org/2000/svg"
 width="700.000000pt" height="700.000000pt" viewBox="0 0 700.000000 700.000000"
 preserveAspectRatio="xMidYMid meet">
<metadata>
Created by potrace 1.11, written by Peter Selinger 2001-2013
</metadata>
<g transform="translate(0.000000,700.000000) scale(0.100000,-0.100000)"
fill="#000000" stroke="none">
<path d="M3466 6659 c-16 -4 -41 -20 -56 -34 -14 -14 -28 -23 -31 -21 -6 5
-134 22 -264 34 -129 12 -427 4 -505 -14 -8 -1 -44 -8 -80 -14 -453 -78 -851
-352 -1120 -772 -35 -55 -48 -68 -69 -68 -31 0 -86 -32 -100 -57 -5 -10 -11
-33 -13 -50 -3 -27 -17 -40 -103 -98 -55 -37 -102 -70 -105 -74 -3 -3 -27 -24
-55 -45 -84 -66 -226 -218 -297 -317 -93 -129 -213 -371 -233 -469 -2 -8 -10
-42 -18 -75 -39 -152 -60 -318 -60 -490 -1 -99 10 -290 18 -330 2 -11 6 -42 9
-70 3 -27 8 -60 10 -72 3 -15 -3 -26 -19 -37 -51 -34 -51 -123 1 -177 14 -15
23 -32 20 -38 -4 -5 -9 -36 -12 -68 -3 -32 -7 -64 -9 -71 -3 -7 -8 -61 -12
-120 -13 -187 -6 -398 17 -517 6 -27 12 -63 14 -80 12 -98 80 -300 145 -430
84 -169 160 -273 311 -426 90 -90 258 -221 355 -275 13 -7 20 -22 21 -42 2
-57 55 -112 112 -115 25 -2 38 -15 87 -87 361 -533 847 -786 1507 -783 97 0
244 9 308 18 14 2 45 6 70 9 25 4 54 8 65 10 11 1 27 -7 38 -20 39 -50 130
-49 177 1 12 13 26 23 29 20 4 -2 38 -7 76 -10 39 -4 73 -9 76 -11 11 -6 213
-18 314 -18 174 1 378 25 501 60 28 8 60 16 70 18 11 3 56 18 101 35 324 120
591 337 808 656 59 87 72 100 98 103 58 4 105 52 109 110 3 27 14 39 88 88
371 248 604 559 715 956 14 47 27 104 30 125 3 21 10 61 15 88 29 155 31 443
5 645 -2 19 -7 58 -11 85 -3 28 -8 53 -10 56 -2 3 8 17 21 29 53 50 51 135 -3
184 -12 10 -20 22 -18 25 3 4 8 34 11 66 4 33 9 69 11 80 2 11 7 65 11 120 13
195 5 415 -23 565 -87 479 -325 833 -754 1125 -55 38 -85 64 -87 78 -7 52 -15
68 -48 92 -19 15 -47 27 -63 28 -25 2 -38 14 -83 82 -172 260 -386 460 -631
590 -75 40 -249 112 -288 120 -8 2 -51 12 -95 23 -44 12 -98 23 -120 27 -23 3
-51 7 -62 9 -121 24 -443 24 -618 1 -17 -2 -52 -6 -78 -9 -27 -3 -52 -8 -57
-11 -5 -3 -21 5 -37 18 -48 40 -82 49 -127 36z m-356 -103 c53 -3 105 -8 115
-10 11 -2 48 -7 83 -11 34 -4 64 -11 67 -16 3 -4 -45 -24 -107 -44 -496 -157
-1185 -441 -1665 -687 -84 -43 -155 -74 -158 -69 -7 13 19 58 93 162 285 401
682 627 1187 674 39 4 71 7 72 8 4 4 226 -1 313 -7z m1154 -1 c277 -19 548
-108 761 -251 143 -96 163 -112 276 -229 81 -84 128 -143 202 -253 80 -118 70
-125 -69 -53 -457 238 -1073 495 -1632 681 -95 32 -173 62 -173 66 -1 14 117
31 281 40 58 4 106 7 107 8 4 4 133 -1 247 -9z m-864 -83 c0 -5 11 -14 24 -21
l23 -13 -30 -61 c-105 -217 -209 -440 -409 -876 -11 -25 -54 -121 -95 -215
-42 -94 -77 -172 -78 -174 -1 -1 -56 18 -121 44 -202 79 -658 248 -899 334
-126 45 -256 91 -287 102 -57 20 -58 22 -58 58 l0 38 88 27 c246 76 779 275
1027 385 259 114 374 167 565 263 225 114 250 124 250 109z m467 -118 c345
-168 355 -173 613 -281 296 -125 715 -281 947 -353 l101 -32 4 -39 3 -38 -90
-30 c-172 -56 -828 -297 -1159 -425 -65 -26 -120 -45 -121 -44 -2 2 -15 32
-30 67 -14 35 -69 159 -122 275 -52 116 -102 227 -111 246 -8 19 -42 91 -74
159 -32 68 -58 125 -58 127 0 1 -43 92 -96 201 -126 260 -120 242 -92 269 13
13 24 23 25 23 1 1 118 -56 260 -125z m-345 67 c12 7 25 -19 72 -154 85 -240
184 -514 211 -582 13 -33 54 -141 90 -240 37 -99 85 -224 107 -279 21 -54 37
-101 34 -104 -7 -6 -494 -201 -522 -208 -17 -4 -341 116 -459 171 -16 7 -42
17 -58 20 -15 4 -29 11 -32 15 -5 8 19 78 45 135 5 11 41 106 80 210 39 105
75 201 81 215 14 32 210 575 256 707 33 95 36 101 57 93 12 -4 29 -4 38 1z
m-1687 -1006 c191 -89 561 -258 750 -342 104 -47 191 -85 192 -86 1 -1 -50
-121 -112 -266 -86 -200 -119 -268 -137 -277 -13 -6 -104 -46 -203 -89 -99
-42 -193 -83 -210 -90 -16 -7 -46 -20 -66 -28 l-37 -15 -38 86 c-75 172 -283
630 -343 755 -34 71 -61 130 -61 132 0 1 -38 80 -84 175 l-84 172 31 27 30 27
136 -67 c75 -37 181 -88 236 -114z m3735 152 l28 -24 -55 -114 c-91 -187 -183
-381 -183 -384 0 -2 -23 -52 -51 -112 -28 -59 -112 -243 -186 -408 -74 -165
-136 -301 -137 -302 -2 -3 -526 224 -533 231 -3 3 -57 124 -119 268 l-113 263
37 17 c20 9 60 27 87 39 180 80 607 275 695 316 58 28 125 60 150 71 25 11
110 52 190 91 80 39 149 70 154 71 4 0 21 -11 36 -23z m-4287 -13 c3 -3 -32
-81 -78 -173 -256 -505 -547 -1216 -691 -1685 -29 -94 -37 -96 -48 -11 -24
191 -27 229 -27 390 -2 631 236 1089 741 1428 85 58 92 62 103 51z m4575 -76
c469 -326 704 -787 705 -1383 1 -176 -28 -470 -46 -470 -4 0 -39 92 -76 205
-87 258 -214 600 -286 765 -7 17 -38 89 -68 160 -31 72 -73 168 -95 215 -22
47 -56 121 -77 165 -20 44 -74 155 -120 247 -104 207 -102 211 63 96z m-4411
-117 c83 -237 252 -696 357 -970 48 -123 85 -225 84 -226 -2 -1 -97 -44 -212
-95 -277 -122 -697 -316 -924 -425 l-183 -89 -25 26 -26 25 70 139 c259 512
520 1144 688 1664 20 63 41 118 46 121 5 3 21 6 36 6 27 0 30 -6 89 -176z
m4285 26 c165 -510 412 -1108 674 -1629 l74 -148 -22 -25 c-12 -14 -25 -25
-29 -25 -4 0 -89 40 -190 89 -289 139 -749 350 -1049 481 -41 18 -77 34 -79
36 -1 1 20 60 47 131 54 136 209 547 235 623 9 25 25 70 37 100 12 30 36 98
55 150 104 294 124 350 129 358 2 4 20 6 39 4 l34 -4 45 -141z m-2600 -554
c87 -37 154 -70 150 -74 -4 -3 -54 -25 -112 -49 -58 -23 -173 -71 -257 -106
-84 -35 -154 -64 -156 -64 -3 0 30 87 72 194 l76 194 35 -14 c19 -8 106 -45
192 -81z m1041 -105 c41 -104 74 -188 71 -188 -2 0 -74 30 -161 66 -87 36
-203 84 -258 106 -55 22 -103 44 -107 47 -4 4 50 31 120 61 70 29 154 66 187
81 33 15 63 25 67 21 3 -4 40 -91 81 -194z m-683 -98 c0 -22 5 -40 10 -40 6 0
10 18 10 41 0 29 4 40 13 36 109 -47 655 -273 719 -298 68 -26 89 -40 97 -59
7 -20 306 -737 328 -787 3 -9 -6 -13 -31 -13 -20 0 -36 -4 -36 -10 0 -5 16
-10 35 -10 19 0 35 -2 35 -4 0 -3 -39 -96 -60 -141 -9 -19 -126 -303 -229
-555 l-52 -125 -87 -34 c-65 -26 -455 -187 -719 -298 -9 -4 -13 7 -13 36 0 23
-4 41 -10 41 -5 0 -10 -18 -10 -41 0 -29 -4 -40 -12 -36 -7 3 -137 57 -288
120 -151 63 -332 138 -402 167 -71 29 -128 56 -128 61 0 8 -199 501 -220 544
-44 92 -108 261 -100 263 5 2 10 8 10 14 0 6 -7 7 -16 4 -13 -5 -14 -3 -7 6 6
7 24 47 40 88 69 170 303 733 305 734 2 1 28 11 58 23 70 28 392 159 444 181
21 10 98 42 170 74 72 31 134 57 139 57 4 1 7 -17 7 -39z m-1035 -402 c-4 -13
-18 -47 -31 -76 -13 -29 -24 -55 -24 -57 0 -3 -9 -24 -19 -48 -11 -23 -45
-105 -76 -182 -32 -77 -60 -143 -64 -147 -3 -4 -43 78 -88 182 -44 105 -78
192 -74 194 3 2 76 32 161 66 85 33 169 67 185 75 38 19 38 19 30 -7z m2473
-134 c2 -1 -7 -26 -21 -56 -13 -29 -50 -115 -82 -191 -32 -76 -62 -134 -65
-130 -7 8 -220 518 -220 527 0 3 372 -141 388 -150z m-2901 -274 c46 -118 93
-235 103 -260 14 -33 15 -47 7 -52 -9 -6 -9 -10 0 -16 9 -5 -16 -78 -90 -264
-57 -141 -105 -259 -108 -263 -3 -3 -98 30 -210 74 -267 103 -770 288 -983
362 l-169 58 -1 40 -1 40 90 31 c150 52 698 251 730 265 17 7 57 23 90 34 33
12 146 54 250 95 105 41 194 73 198 72 5 -1 47 -98 94 -216z m3388 87 c324
-123 695 -259 907 -332 100 -35 106 -38 98 -59 -4 -12 -4 -29 1 -38 7 -13 -31
-29 -239 -103 -239 -84 -802 -293 -1013 -375 -56 -22 -105 -38 -108 -35 -2 3
-51 121 -107 263 -95 237 -101 258 -83 264 25 10 24 22 -1 15 -26 -7 -30 -18
82 263 50 124 94 236 99 249 5 12 15 21 22 18 6 -2 161 -61 342 -130z m-4649
-558 c104 -50 209 -100 234 -111 25 -11 92 -43 150 -70 138 -65 587 -268 670
-303 36 -15 66 -28 68 -30 1 -1 -18 -56 -43 -121 -140 -359 -402 -1078 -450
-1231 -3 -8 -21 -13 -43 -13 l-38 0 -28 88 c-153 482 -382 1046 -637 1571
l-129 265 22 23 c12 13 25 23 28 23 4 0 92 -41 196 -91z m5692 66 l23 -24 -60
-118 c-269 -533 -543 -1198 -707 -1715 -28 -87 -28 -87 -63 -90 l-36 -3 -111
310 c-128 359 -194 535 -310 839 -47 120 -83 220 -82 221 2 1 53 24 113 50
115 50 482 216 633 286 48 22 132 61 187 87 55 26 161 77 235 114 74 37 140
67 145 67 6 0 20 -10 33 -24z m-5934 -142 c150 -477 417 -1128 671 -1635 91
-182 99 -211 50 -184 -10 6 -49 31 -85 55 -484 329 -725 799 -723 1416 0 85
10 254 17 295 2 14 7 52 11 84 7 59 14 90 21 83 2 -1 19 -53 38 -114z m6011
40 c12 -89 12 -90 21 -213 50 -716 -186 -1232 -734 -1603 -117 -79 -125 -70
-56 62 260 499 535 1171 740 1809 8 27 22 1 29 -55z m-4245 -143 c23 -58 71
-173 106 -257 35 -84 64 -154 64 -157 0 -3 -218 81 -357 139 l-32 13 82 191
c45 105 84 187 88 183 3 -4 25 -54 49 -112z m2568 -98 l71 -163 -32 -14 c-130
-54 -357 -143 -357 -139 0 4 65 162 85 209 8 17 39 93 71 170 31 77 59 144 61
149 3 5 11 -4 18 -20 7 -16 44 -102 83 -192z m-2638 -381 c80 -34 159 -68 175
-75 17 -8 57 -26 91 -40 70 -31 57 -9 180 -299 48 -111 93 -216 100 -233 l13
-32 -132 -57 c-155 -68 -164 -72 -497 -225 -275 -127 -353 -163 -559 -262
l-134 -65 -27 30 -26 29 41 82 c45 92 125 259 183 386 22 47 55 119 75 160 70
150 117 252 117 255 0 2 20 46 45 99 25 53 45 99 45 101 0 3 13 33 29 67 15
35 38 86 51 115 l22 52 32 -13 c17 -8 96 -41 176 -75z m2873 -151 c57 -129
151 -334 207 -455 56 -121 109 -235 117 -254 8 -18 50 -105 94 -193 43 -88 79
-164 79 -171 0 -14 -40 -57 -54 -57 -6 0 -76 32 -156 71 -80 39 -172 84 -205
99 -33 15 -125 58 -205 95 -80 37 -280 128 -445 202 -165 74 -300 135 -302
136 -1 1 50 121 112 267 l114 265 54 25 c30 14 69 32 88 40 265 113 394 168
396 166 0 0 48 -107 106 -236z m-2241 -118 c51 -22 167 -69 258 -106 91 -38
168 -71 172 -75 4 -3 -78 -43 -183 -88 l-191 -82 -13 32 c-48 117 -143 357
-140 357 2 0 45 -17 97 -38z m1319 -154 c-55 -135 -82 -192 -92 -190 -41 10
-368 157 -362 163 5 3 76 34 158 67 83 34 197 82 255 106 58 25 108 45 112 46
3 0 -29 -87 -71 -192z m-401 -219 c140 -56 258 -105 263 -109 4 -3 -36 -119
-89 -256 -53 -137 -120 -316 -150 -399 -30 -82 -58 -159 -63 -170 -5 -11 -37
-99 -71 -195 -34 -96 -75 -213 -92 -260 l-31 -86 -38 1 c-38 0 -40 2 -56 50
-9 28 -31 93 -50 145 -19 52 -47 131 -62 175 -52 147 -182 500 -191 520 -6 11
-34 85 -64 165 -30 80 -68 180 -85 223 -17 43 -31 79 -31 81 0 2 24 13 53 25
28 12 61 26 72 31 11 4 45 18 75 30 30 11 64 25 75 30 77 33 253 99 265 100 8
0 130 -46 270 -101z m-905 -226 c25 -59 126 -285 202 -453 101 -224 199 -433
279 -599 52 -107 94 -197 94 -201 0 -3 -11 -16 -25 -28 l-25 -22 -158 79
c-504 254 -1187 535 -1655 681 l-108 34 3 38 3 38 155 54 c273 95 772 279
1055 390 77 30 142 55 145 55 3 1 19 -29 35 -66z m1600 -45 c357 -137 601
-227 1023 -375 39 -14 42 -17 42 -52 l0 -38 -92 -28 c-128 -39 -498 -172 -692
-249 -340 -135 -658 -277 -979 -438 l-158 -79 -25 23 c-13 13 -24 26 -24 29 0
4 36 80 79 170 120 250 282 598 398 859 134 300 130 293 151 285 9 -4 134 -52
277 -107z m-2560 -713 c447 -210 953 -407 1464 -571 43 -14 -54 -33 -254 -50
-92 -8 -291 -8 -380 0 -538 49 -935 284 -1238 735 -31 45 -53 89 -50 96 3 11
47 -7 171 -70 92 -46 221 -109 287 -140z m3633 165 c-12 -19 -30 -44 -40 -56
-10 -11 -18 -24 -18 -28 0 -26 -181 -232 -285 -324 -119 -105 -322 -227 -460
-276 -78 -27 -249 -73 -296 -80 -24 -3 -55 -8 -69 -11 -36 -7 -204 -18 -285
-18 -81 -1 -304 12 -314 17 -3 2 -35 7 -71 10 -64 7 -97 21 -69 30 528 169
1046 372 1494 586 160 76 338 165 385 190 45 26 57 8 28 -40z"/>
<path d="M3495 6380 c-3 -5 -1 -10 4 -10 6 0 11 5 11 10 0 6 -2 10 -4 10 -3 0
-8 -4 -11 -10z"/>
<path d="M3497 6275 c-4 -8 -3 -16 1 -19 4 -3 9 4 9 15 2 23 -3 25 -10 4z"/>
<path d="M3495 6135 c0 -35 3 -66 6 -69 2 -3 4 24 4 59 0 35 -3 66 -6 69 -2 3
-4 -24 -4 -59z"/>
<path d="M3493 5975 c0 -8 4 -12 9 -9 4 3 8 9 8 15 0 5 -4 9 -8 9 -5 0 -9 -7
-9 -15z"/>
<path d="M3499 5908 c-5 -13 -5 -149 -1 -152 4 -2 7 31 8 75 1 66 -1 91 -7 77z"/>
<path d="M3493 5692 c1 -14 5 -18 11 -12 7 7 6 14 -1 21 -9 9 -12 7 -10 -9z"/>
<path d="M3496 5611 c-8 -12 -3 -61 5 -61 4 0 7 16 7 35 0 36 -3 42 -12 26z"/>
<path d="M3493 5498 c-2 -22 1 -38 5 -34 9 9 12 76 3 76 -3 0 -7 -19 -8 -42z"/>
<path d="M3493 5395 c0 -8 4 -15 9 -15 4 0 8 7 8 15 0 8 -4 15 -8 15 -5 0 -9
-7 -9 -15z"/>
<path d="M3493 5315 c0 -8 4 -15 9 -15 4 0 8 7 8 15 0 8 -4 15 -8 15 -5 0 -9
-7 -9 -15z"/>
<path d="M3492 5230 c1 -33 4 -60 8 -60 4 0 7 27 7 60 0 33 -4 60 -8 60 -4 0
-7 -27 -7 -60z"/>
<path d="M3490 5099 c0 -11 5 -17 10 -14 6 3 10 13 10 21 0 8 -4 14 -10 14 -5
0 -10 -9 -10 -21z"/>
<path d="M3492 4960 c1 -44 5 -80 9 -80 4 0 7 36 6 80 0 44 -5 80 -9 80 -4 0
-7 -36 -6 -80z"/>
<path d="M3490 4520 c0 -11 5 -20 10 -20 6 0 10 9 10 20 0 11 -4 20 -10 20 -5
0 -10 -9 -10 -20z"/>
<path d="M3490 4376 c0 -41 5 -78 10 -81 6 -4 10 23 10 74 0 47 -4 81 -10 81
-6 0 -10 -31 -10 -74z"/>
<path d="M3490 4230 c0 -11 5 -20 10 -20 6 0 10 9 10 20 0 11 -4 20 -10 20 -5
0 -10 -9 -10 -20z"/>
<path d="M3490 4086 c0 -41 5 -78 10 -81 6 -4 10 23 10 74 0 47 -4 81 -10 81
-6 0 -10 -31 -10 -74z"/>
<path d="M3490 3940 c0 -11 5 -20 10 -20 6 0 10 9 10 20 0 11 -4 20 -10 20 -5
0 -10 -9 -10 -20z"/>
<path d="M3490 3790 c0 -47 4 -80 10 -80 6 0 10 33 10 80 0 47 -4 80 -10 80
-6 0 -10 -33 -10 -80z"/>
<path d="M3490 3650 c0 -11 5 -20 10 -20 6 0 10 9 10 20 0 11 -4 20 -10 20 -5
0 -10 -9 -10 -20z"/>
<path d="M3490 3545 c0 -35 0 -35 -45 -35 -25 0 -45 -4 -45 -10 0 -5 20 -10
45 -10 45 0 45 0 45 -35 0 -19 5 -35 10 -35 6 0 10 33 10 80 0 47 -4 80 -10
80 -5 0 -10 -16 -10 -35z"/>
<path d="M2400 3500 c0 -5 18 -10 39 -10 22 0 43 5 46 10 4 6 -12 10 -39 10
-25 0 -46 -4 -46 -10z"/>
<path d="M2530 3500 c0 -5 5 -10 10 -10 6 0 10 5 10 10 0 6 -4 10 -10 10 -5 0
-10 -4 -10 -10z"/>
<path d="M2600 3500 c0 -5 18 -10 39 -10 22 0 43 5 46 10 4 6 -12 10 -39 10
-25 0 -46 -4 -46 -10z"/>
<path d="M2730 3500 c0 -5 5 -10 10 -10 6 0 10 5 10 10 0 6 -4 10 -10 10 -5 0
-10 -4 -10 -10z"/>
<path d="M2800 3500 c0 -5 20 -10 45 -10 25 0 45 5 45 10 0 6 -20 10 -45 10
-25 0 -45 -4 -45 -10z"/>
<path d="M2930 3500 c0 -5 4 -10 9 -10 6 0 13 5 16 10 3 6 -1 10 -9 10 -9 0
-16 -4 -16 -10z"/>
<path d="M3000 3500 c0 -5 20 -10 45 -10 25 0 45 5 45 10 0 6 -20 10 -45 10
-25 0 -45 -4 -45 -10z"/>
<path d="M3130 3500 c0 -5 7 -10 16 -10 8 0 12 5 9 10 -3 6 -10 10 -16 10 -5
0 -9 -4 -9 -10z"/>
<path d="M3200 3500 c0 -5 20 -10 45 -10 25 0 45 5 45 10 0 6 -20 10 -45 10
-25 0 -45 -4 -45 -10z"/>
<path d="M3330 3500 c0 -5 4 -10 9 -10 6 0 13 5 16 10 3 6 -1 10 -9 10 -9 0
-16 -4 -16 -10z"/>
<path d="M3530 3500 c0 -5 7 -10 16 -10 8 0 12 5 9 10 -3 6 -10 10 -16 10 -5
0 -9 -4 -9 -10z"/>
<path d="M3600 3500 c0 -5 20 -10 45 -10 25 0 45 5 45 10 0 6 -20 10 -45 10
-25 0 -45 -4 -45 -10z"/>
<path d="M3730 3500 c0 -5 5 -10 10 -10 6 0 10 5 10 10 0 6 -4 10 -10 10 -5 0
-10 -4 -10 -10z"/>
<path d="M3800 3500 c0 -5 20 -10 45 -10 25 0 45 5 45 10 0 6 -20 10 -45 10
-25 0 -45 -4 -45 -10z"/>
<path d="M3930 3500 c0 -5 4 -10 9 -10 6 0 13 5 16 10 3 6 -1 10 -9 10 -9 0
-16 -4 -16 -10z"/>
<path d="M4000 3500 c0 -5 20 -10 45 -10 25 0 45 5 45 10 0 6 -20 10 -45 10
-25 0 -45 -4 -45 -10z"/>
<path d="M4130 3500 c0 -5 5 -10 10 -10 6 0 10 5 10 10 0 6 -4 10 -10 10 -5 0
-10 -4 -10 -10z"/>
<path d="M4200 3500 c0 -5 20 -10 45 -10 25 0 45 5 45 10 0 6 -20 10 -45 10
-25 0 -45 -4 -45 -10z"/>
<path d="M4330 3500 c0 -5 5 -10 10 -10 6 0 10 5 10 10 0 6 -4 10 -10 10 -5 0
-10 -4 -10 -10z"/>
<path d="M4400 3500 c0 -5 18 -10 39 -10 22 0 43 5 46 10 4 6 -12 10 -39 10
-25 0 -46 -4 -46 -10z"/>
<path d="M4530 3500 c0 -5 5 -10 10 -10 6 0 10 5 10 10 0 6 -4 10 -10 10 -5 0
-10 -4 -10 -10z"/>
<path d="M3490 3356 c0 -14 5 -26 10 -26 6 0 10 9 10 19 0 11 -4 23 -10 26 -6
4 -10 -5 -10 -19z"/>
<path d="M3490 3210 c0 -47 4 -80 10 -80 6 0 10 33 10 80 0 47 -4 80 -10 80
-6 0 -10 -33 -10 -80z"/>
<path d="M3490 3059 c0 -11 5 -17 10 -14 6 3 10 13 10 21 0 8 -4 14 -10 14 -5
0 -10 -9 -10 -21z"/>
<path d="M3490 2921 c0 -47 4 -81 10 -81 6 0 10 31 10 74 0 41 -4 78 -10 81
-6 4 -10 -23 -10 -74z"/>
<path d="M3490 2770 c0 -11 5 -20 10 -20 6 0 10 9 10 20 0 11 -4 20 -10 20 -5
0 -10 -9 -10 -20z"/>
<path d="M3497 2703 c-11 -11 -8 -153 3 -153 6 0 10 33 10 80 0 80 -1 86 -13
73z"/>
<path d="M3490 2480 c0 -11 4 -20 9 -20 6 0 9 9 8 20 -1 11 -5 20 -9 20 -4 0
-8 -9 -8 -20z"/>
<path d="M610 3499 c0 -5 5 -7 10 -4 6 3 10 8 10 11 0 2 -4 4 -10 4 -5 0 -10
-5 -10 -11z"/>
<path d="M806 3501 c3 -3 23 -6 45 -7 22 -1 37 1 34 4 -3 3 -23 6 -45 7 -22 1
-37 -1 -34 -4z"/>
<path d="M1005 3501 c-2 -5 16 -8 41 -8 24 0 42 2 40 5 -9 8 -76 11 -81 3z"/>
<path d="M1205 3501 c-2 -5 16 -8 41 -8 24 0 42 2 40 5 -9 8 -76 11 -81 3z"/>
<path d="M1335 3500 c-3 -5 -1 -10 4 -10 6 0 11 5 11 10 0 6 -2 10 -4 10 -3 0
-8 -4 -11 -10z"/>
<path d="M1405 3500 c-3 -5 -1 -10 4 -10 6 0 11 5 11 10 0 6 -2 10 -4 10 -3 0
-8 -4 -11 -10z"/>
<path d="M1430 3498 c0 -4 7 -8 15 -8 8 0 15 4 15 8 0 5 -7 9 -15 9 -8 0 -15
-4 -15 -9z"/>
<path d="M1470 3499 c0 -5 5 -7 10 -4 6 3 10 8 10 11 0 2 -4 4 -10 4 -5 0 -10
-5 -10 -11z"/>
<path d="M1535 3500 c-3 -5 -1 -10 4 -10 6 0 11 5 11 10 0 6 -2 10 -4 10 -3 0
-8 -4 -11 -10z"/>
<path d="M1605 3502 c4 -4 24 -7 46 -8 51 -1 40 10 -13 13 -22 1 -37 -1 -33
-5z"/>
<path d="M1730 3500 c0 -5 5 -10 10 -10 6 0 10 5 10 10 0 6 -4 10 -10 10 -5 0
-10 -4 -10 -10z"/>
<path d="M1800 3499 c0 -4 20 -7 45 -7 25 0 45 3 45 7 0 5 -20 8 -45 8 -25 0
-45 -3 -45 -8z"/>
<path d="M1935 3500 c-3 -5 -1 -10 4 -10 6 0 11 5 11 10 0 6 -2 10 -4 10 -3 0
-8 -4 -11 -10z"/>
<path d="M2000 3501 c0 -11 78 -13 84 -2 3 5 -15 9 -39 9 -25 1 -45 -2 -45 -7z"/>
<path d="M4930 3500 c0 -5 5 -10 10 -10 6 0 10 5 10 10 0 6 -4 10 -10 10 -5 0
-10 -4 -10 -10z"/>
<path d="M5000 3498 c0 -4 21 -7 46 -6 30 0 41 4 33 9 -17 11 -79 8 -79 -3z"/>
<path d="M5130 3500 c0 -5 5 -10 10 -10 6 0 10 5 10 10 0 6 -4 10 -10 10 -5 0
-10 -4 -10 -10z"/>
<path d="M5200 3502 c0 -5 21 -9 46 -9 31 -1 42 2 33 8 -18 11 -79 12 -79 1z"/>
<path d="M5330 3500 c0 -5 5 -10 10 -10 6 0 10 5 10 10 0 6 -4 10 -10 10 -5 0
-10 -4 -10 -10z"/>
<path d="M5420 3502 c0 -4 9 -8 20 -9 11 -1 20 2 20 5 0 4 -9 8 -20 9 -11 1
-20 -2 -20 -5z"/>
<path d="M5470 3500 c0 -5 5 -10 11 -10 5 0 7 5 4 10 -3 6 -8 10 -11 10 -2 0
-4 -4 -4 -10z"/>
<path d="M5530 3499 c0 -5 5 -7 10 -4 6 3 10 8 10 11 0 2 -4 4 -10 4 -5 0 -10
-5 -10 -11z"/>
<path d="M5605 3500 c-3 -4 13 -7 35 -7 22 0 37 3 34 6 -9 9 -64 9 -69 1z"/>
<path d="M5730 3499 c0 -5 5 -7 10 -4 6 3 10 8 10 11 0 2 -4 4 -10 4 -5 0 -10
-5 -10 -11z"/>
<path d="M5807 3503 c-3 -5 13 -9 34 -10 22 -1 37 2 35 6 -6 9 -64 13 -69 4z"/>
<path d="M5935 3500 c-3 -5 -1 -10 4 -10 6 0 11 5 11 10 0 6 -2 10 -4 10 -3 0
-8 -4 -11 -10z"/>
<path d="M6007 3500 c7 -8 63 -7 63 1 0 3 -15 6 -34 5 -19 0 -32 -3 -29 -6z"/>
<path d="M6226 3498 c3 -4 9 -8 15 -8 5 0 9 4 9 8 0 5 -7 9 -15 9 -8 0 -12 -4
-9 -9z"/>
<path d="M3492 2040 c-1 -44 3 -78 7 -75 10 6 11 155 1 155 -4 0 -8 -36 -8
-80z"/>
<path d="M3490 1895 c0 -8 5 -15 10 -15 6 0 10 7 10 15 0 8 -4 15 -10 15 -5 0
-10 -7 -10 -15z"/>
<path d="M3493 1785 c0 -25 3 -45 6 -45 4 0 8 20 8 45 1 25 -2 45 -6 45 -5 0
-8 -20 -8 -45z"/>
<path d="M3493 1715 c0 -8 4 -15 9 -15 4 0 8 7 8 15 0 8 -4 15 -8 15 -5 0 -9
-7 -9 -15z"/>
<path d="M3490 1680 c0 -5 5 -10 10 -10 6 0 10 5 10 10 0 6 -4 10 -10 10 -5 0
-10 -4 -10 -10z"/>
<path d="M3496 1611 c-4 -7 -5 -15 -2 -18 9 -9 19 4 14 18 -4 11 -6 11 -12 0z"/>
<path d="M3494 1485 c0 -30 3 -55 7 -55 3 0 6 25 6 55 -1 30 -3 55 -7 55 -3 0
-6 -25 -6 -55z"/>
<path d="M3490 1406 c0 -8 4 -17 9 -21 6 -3 9 4 8 15 -1 23 -17 28 -17 6z"/>
<path d="M3490 1308 c0 -12 3 -18 7 -14 11 10 12 36 2 36 -5 0 -9 -10 -9 -22z"/>
<path d="M3498 1238 c-4 -37 -3 -148 2 -148 3 0 6 36 6 80 0 72 -3 102 -8 68z"/>
<path d="M3494 1020 c0 -13 4 -16 10 -10 7 7 7 13 0 20 -6 6 -10 3 -10 -10z"/>
<path d="M3495 876 c0 -41 2 -72 5 -70 7 7 8 144 1 144 -4 0 -6 -33 -6 -74z"/>
<path d="M3495 649 c-4 -6 -5 -12 -2 -15 2 -3 7 2 10 11 7 17 1 20 -8 4z"/>
<path d="M3495 609 c-4 -6 -5 -12 -2 -15 2 -3 7 2 10 11 7 17 1 20 -8 4z"/>
</g>
</svg>
