<svg xmlns="http://www.w3.org/2000/svg" xmlns:xlink="http://www.w3.org/1999/xlink" viewBox="0 0 923 357">
    <defs>
        <style>
            .cls-19{fill:#4f6fbf;} .cls-1{fill:#010101;}.cls-2{fill:#4b77bb;}.cls-3{fill:#4169b2;}.cls-4{fill:#355dab;}.cls-5{fill:#d25827;}.cls-6{fill:#f26522;}.cls-7,.cls-8{fill:none;}.cls-7{stroke-width:4px;stroke:url(#linear-gradient);}.cls-8{stroke:#010101;stroke-linecap:round;stroke-linejoin:round;stroke-width:8px;}
        </style>
        <linearGradient id="linear-gradient" x1="62.64" x2="287.36" y1="287.36" y2="62.64" gradientUnits="userSpaceOnUse">
            <stop offset="0" stop-color="#f26522"/>
            <stop offset="0.09" stop-color="#f26725"/>
            <stop offset="0.16" stop-color="#f06e30"/>
            <stop offset="0.23" stop-color="#ee7941"/>
            <stop offset="0.29" stop-color="#ea885a"/>
            <stop offset="0.36" stop-color="#e69c7a"/>
            <stop offset="0.42" stop-color="#e1b5a1"/>
            <stop offset="0.48" stop-color="#dbd2cf"/>
            <stop offset="0.49" stop-color="#d9dadc"/>
            <stop offset="0.51" stop-color="#dcccc5"/>
            <stop offset="0.54" stop-color="#e1b49f"/>
            <stop offset="0.57" stop-color="#e69e7d"/>
            <stop offset="0.61" stop-color="#ea8c61"/>
            <stop offset="0.65" stop-color="#ed7e49"/>
            <stop offset="0.69" stop-color="#ef7338"/>
            <stop offset="0.75" stop-color="#f16b2b"/>
            <stop offset="0.82" stop-color="#f26624"/>
            <stop offset="1" stop-color="#f26522"/>
        </linearGradient>
    </defs>
    <title>
        Asset 3
    </title>
    <g id="Layer_2" data-name="Layer 2">
        <g id="Layer_1-2" data-name="Layer 1">
            <g id="g4397">
                <g id="ml-v">
                    <polygon points="175 0 175.02 4 174.98 4 175 0" class="cls-1"/>
                    <polygon points="175.03 6.3 175.05 8.29 174.95 8.29 174.97 6.3 175.03 6.3" class="cls-1"/>
                    <polygon points="175.06 10.59 175.1 18.58 174.9 18.58 174.94 10.59 175.06 10.59" class="cls-1"/>
                    <polygon points="175.12 20.88 175.13 22.88 174.87 22.88 174.88 20.88 175.12 20.88" class="cls-1"/>
                    <polygon points="175.14 25.18 175.18 33.17 174.82 33.17 174.86 25.18 175.14 25.18" class="cls-1"/>
                    <polygon points="175.2 35.46 175.21 37.46 174.79 37.46 174.8 35.46 175.2 35.46" class="cls-1"/>
                    <polygon points="175.22 39.76 175.25 47.75 174.75 47.75 174.78 39.76 175.22 39.76" class="cls-1"/>
                    <polygon points="175.26 50.05 175.26 52.04 174.74 52.04 174.74 50.05 175.26 50.05" class="cls-1"/>
                    <polygon points="175.27 54.34 175.28 62.33 174.72 62.33 174.73 54.34 175.27 54.34" class="cls-1"/>
                    <polygon points="175.29 64.63 175.29 66.63 174.71 66.63 174.71 64.63 175.29 64.63" class="cls-1"/>
                    <polygon points="175.3 68.92 175.31 76.92 174.69 76.92 174.7 68.92 175.3 68.92" class="cls-1"/>
                    <polygon points="175.32 79.21 175.32 81.21 174.68 81.21 174.68 79.21 175.32 79.21" class="cls-1"/>
                    <polygon points="175.32 83.51 175.34 91.5 174.66 91.5 174.68 83.51 175.32 83.51" class="cls-1"/>
                    <polygon points="175.34 93.8 175.35 95.79 174.65 95.79 174.66 93.8 175.34 93.8" class="cls-1"/>
                    <polygon points="175.35 98.09 175.37 106.08 174.63 106.08 174.65 98.09 175.35 98.09" class="cls-1"/>
                    <polygon points="175.37 108.38 175.38 110.38 174.63 110.38 174.63 108.38 175.37 108.38" class="cls-1"/>
                    <polygon points="175.38 112.67 175.4 120.66 174.6 120.66 174.62 112.67 175.38 112.67" class="cls-1"/>
                    <polygon points="175.4 122.96 175.4 124.96 174.6 124.96 174.6 122.96 175.4 122.96" class="cls-1"/>
                    <polygon points="175.41 127.26 175.42 135.25 174.58 135.25 174.59 127.26 175.41 127.26" class="cls-1"/>
                    <polygon points="175.43 137.54 175.43 139.54 174.57 139.54 174.57 137.54 175.43 137.54" class="cls-1"/>
                    <polygon points="175.44 141.84 175.45 149.83 174.55 149.83 174.56 141.84 175.44 141.84" class="cls-1"/>
                    <polygon points="175.46 152.13 175.46 154.12 174.54 154.12 174.54 152.13 175.46 152.13" class="cls-1"/>
                    <polygon points="175.46 156.42 175.48 164.41 174.52 164.41 174.54 156.42 175.46 156.42" class="cls-1"/>
                    <polygon points="175.48 166.71 175.49 168.71 174.51 168.71 174.52 166.71 175.48 166.71" class="cls-1"/>
                    <rect width="0.98" height="7.99" x="174.51" y="171" class="cls-1"/>
                    <polygon points="175.49 181.29 175.49 183.29 174.51 183.29 174.51 181.29 175.49 181.29" class="cls-1"/>
                    <polygon points="175.48 185.59 175.47 193.58 174.53 193.58 174.52 185.59 175.48 185.59" class="cls-1"/>
                    <polygon points="175.46 195.88 175.46 197.87 174.54 197.87 174.54 195.88 175.46 195.88" class="cls-1"/>
                    <polygon points="175.45 200.17 175.44 208.16 174.56 208.16 174.55 200.17 175.45 200.17" class="cls-1"/>
                    <polygon points="175.43 210.46 175.43 212.46 174.57 212.46 174.57 210.46 175.43 210.46" class="cls-1"/>
                    <polygon points="175.42 214.75 175.41 222.74 174.59 222.74 174.58 214.75 175.42 214.75" class="cls-1"/>
                    <polygon points="175.41 225.04 175.4 227.04 174.6 227.04 174.59 225.04 175.41 225.04" class="cls-1"/>
                    <polygon points="175.4 229.34 175.38 237.33 174.62 237.33 174.6 229.34 175.4 229.34" class="cls-1"/>
                    <polygon points="175.38 239.62 175.37 241.62 174.63 241.62 174.62 239.62 175.38 239.62" class="cls-1"/>
                    <polygon points="175.37 243.92 175.35 251.91 174.65 251.91 174.63 243.92 175.37 243.92" class="cls-1"/>
                    <polygon points="175.35 254.21 175.34 256.2 174.66 256.2 174.65 254.21 175.35 254.21" class="cls-1"/>
                    <polygon points="175.34 258.5 175.32 266.49 174.68 266.49 174.66 258.5 175.34 258.5" class="cls-1"/>
                    <polygon points="175.32 268.79 175.32 270.79 174.68 270.79 174.68 268.79 175.32 268.79" class="cls-1"/>
                    <polygon points="175.31 273.08 175.3 281.08 174.7 281.08 174.69 273.08 175.31 273.08" class="cls-1"/>
                    <polygon points="175.29 283.37 175.29 285.37 174.71 285.37 174.71 283.37 175.29 283.37" class="cls-1"/>
                    <polygon points="175.28 287.67 175.27 295.66 174.73 295.66 174.72 287.67 175.28 287.67" class="cls-1"/>
                    <polygon points="175.26 297.96 175.26 299.95 174.74 299.95 174.74 297.96 175.26 297.96" class="cls-1"/>
                    <polygon points="175.26 302.25 175.22 310.24 174.78 310.24 174.74 302.25 175.26 302.25" class="cls-1"/>
                    <polygon points="175.21 312.54 175.2 314.54 174.8 314.54 174.79 312.54 175.21 312.54" class="cls-1"/>
                    <polygon points="175.19 316.83 175.14 324.82 174.86 324.82 174.81 316.83 175.19 316.83" class="cls-1"/>
                    <polygon points="175.13 327.12 175.12 329.12 174.88 329.12 174.87 327.12 175.13 327.12" class="cls-1"/>
                    <polygon points="175.1 331.42 175.06 339.41 174.94 339.41 174.9 331.42 175.1 331.42" class="cls-1"/>
                    <polygon points="175.05 341.7 175.03 343.7 174.97 343.7 174.95 341.7 175.05 341.7" class="cls-1"/>
                    <polygon points="175.02 346 175 350 174.98 346 175.02 346" class="cls-1"/>
                </g>
                <g id="ml-h">
                    <polygon points="0 175 4.44 174.97 4.44 175.03 0 175" class="cls-1"/>
                    <polygon points="6.66 174.96 7.77 174.96 7.77 175.04 6.66 175.04 6.66 174.96" class="cls-1"/>
                    <polygon points="9.99 174.94 14.44 174.92 14.44 175.08 9.99 175.06 9.99 174.94" class="cls-1"/>
                    <polygon points="16.66 174.91 17.77 174.9 17.77 175.1 16.66 175.09 16.66 174.91" class="cls-1"/>
                    <polygon points="19.99 174.89 24.43 174.86 24.43 175.14 19.99 175.11 19.99 174.89" class="cls-1"/>
                    <polygon points="26.65 174.85 27.76 174.85 27.76 175.15 26.65 175.15 26.65 174.85" class="cls-1"/>
                    <polygon points="29.98 174.83 34.42 174.81 34.42 175.19 29.98 175.17 29.98 174.83" class="cls-1"/>
                    <polygon points="36.65 174.8 37.76 174.79 37.76 175.21 36.65 175.2 36.65 174.8" class="cls-1"/>
                    <polygon points="39.98 174.78 44.42 174.75 44.42 175.25 39.98 175.22 39.98 174.78" class="cls-1"/>
                    <polygon points="46.64 174.75 47.75 174.75 47.75 175.25 46.64 175.25 46.64 174.75" class="cls-1"/>
                    <polygon points="49.97 174.74 54.41 174.73 54.41 175.27 49.97 175.26 49.97 174.74" class="cls-1"/>
                    <polygon points="56.63 174.73 57.74 174.73 57.74 175.27 56.63 175.27 56.63 174.73" class="cls-1"/>
                    <polygon points="59.96 174.72 64.41 174.71 64.41 175.29 59.96 175.28 59.96 174.72" class="cls-1"/>
                    <polygon points="66.63 174.71 67.74 174.71 67.74 175.29 66.63 175.29 66.63 174.71" class="cls-1"/>
                    <polygon points="69.96 174.7 74.4 174.69 74.4 175.31 69.96 175.3 69.96 174.7" class="cls-1"/>
                    <polygon points="76.62 174.69 77.73 174.69 77.73 175.31 76.62 175.31 76.62 174.69" class="cls-1"/>
                    <polygon points="79.95 174.68 84.39 174.68 84.39 175.32 79.95 175.32 79.95 174.68" class="cls-1"/>
                    <polygon points="86.61 174.67 87.72 174.67 87.72 175.33 86.61 175.33 86.61 174.67" class="cls-1"/>
                    <polygon points="89.95 174.66 94.39 174.66 94.39 175.34 89.95 175.34 89.95 174.66" class="cls-1"/>
                    <polygon points="96.61 174.65 97.72 174.65 97.72 175.35 96.61 175.35 96.61 174.65" class="cls-1"/>
                    <polygon points="99.94 174.65 104.38 174.64 104.38 175.36 99.94 175.35 99.94 174.65" class="cls-1"/>
                    <polygon points="106.6 174.63 107.71 174.63 107.71 175.37 106.6 175.37 106.6 174.63" class="cls-1"/>
                    <polygon points="109.93 174.63 114.38 174.62 114.38 175.38 109.93 175.37 109.93 174.63" class="cls-1"/>
                    <polygon points="116.6 174.61 117.71 174.61 117.71 175.39 116.6 175.39 116.6 174.61" class="cls-1"/>
                    <polygon points="119.93 174.61 124.37 174.6 124.37 175.4 119.93 175.39 119.93 174.61" class="cls-1"/>
                    <polygon points="126.59 174.59 127.7 174.59 127.7 175.41 126.59 175.41 126.59 174.59" class="cls-1"/>
                    <polygon points="129.92 174.59 134.36 174.58 134.36 175.42 129.92 175.41 129.92 174.59" class="cls-1"/>
                    <polygon points="136.59 174.57 137.69 174.57 137.69 175.43 136.59 175.43 136.59 174.57" class="cls-1"/>
                    <polygon points="139.92 174.57 144.36 174.56 144.36 175.44 139.92 175.43 139.92 174.57" class="cls-1"/>
                    <polygon points="146.58 174.56 147.69 174.55 147.69 175.45 146.58 175.44 146.58 174.56" class="cls-1"/>
                    <polygon points="149.91 174.55 154.35 174.54 154.35 175.46 149.91 175.45 149.91 174.55" class="cls-1"/>
                    <polygon points="156.57 174.54 157.68 174.53 157.68 175.47 156.57 175.46 156.57 174.54" class="cls-1"/>
                    <polygon points="159.9 174.53 164.35 174.52 164.35 175.48 159.9 175.47 159.9 174.53" class="cls-1"/>
                    <polygon points="166.57 174.52 167.68 174.51 167.68 175.49 166.57 175.48 166.57 174.52" class="cls-1"/>
                    <polygon points="169.9 174.51 174.34 174.5 174.34 175.5 169.9 175.49 169.9 174.51" class="cls-1"/>
                    <polygon points="176.56 174.5 177.67 174.5 177.67 175.5 176.56 175.5 176.56 174.5" class="cls-1"/>
                    <polygon points="179.89 174.51 184.33 174.52 184.33 175.48 179.89 175.49 179.89 174.51" class="cls-1"/>
                    <polygon points="186.56 174.52 187.67 174.52 187.67 175.48 186.56 175.48 186.56 174.52" class="cls-1"/>
                    <polygon points="189.89 174.53 194.33 174.54 194.33 175.46 189.89 175.47 189.89 174.53" class="cls-1"/>
                    <polygon points="196.55 174.54 197.66 174.54 197.66 175.46 196.55 175.46 196.55 174.54" class="cls-1"/>
                    <polygon points="199.88 174.55 204.32 174.56 204.32 175.44 199.88 175.45 199.88 174.55" class="cls-1"/>
                    <polygon points="206.54 174.56 207.65 174.56 207.65 175.44 206.54 175.44 206.54 174.56" class="cls-1"/>
                    <polygon points="209.88 174.57 214.32 174.57 214.32 175.43 209.88 175.43 209.88 174.57" class="cls-1"/>
                    <polygon points="216.54 174.58 217.65 174.58 217.65 175.42 216.54 175.42 216.54 174.58" class="cls-1"/>
                    <polygon points="219.87 174.59 224.31 174.59 224.31 175.41 219.87 175.41 219.87 174.59" class="cls-1"/>
                    <polygon points="226.53 174.6 227.64 174.6 227.64 175.4 226.53 175.4 226.53 174.6" class="cls-1"/>
                    <polygon points="229.86 174.6 234.3 174.61 234.3 175.39 229.86 175.4 229.86 174.6" class="cls-1"/>
                    <polygon points="236.53 174.62 237.64 174.62 237.64 175.38 236.53 175.38 236.53 174.62" class="cls-1"/>
                    <polygon points="239.86 174.62 244.3 174.63 244.3 175.37 239.86 175.38 239.86 174.62" class="cls-1"/>
                    <polygon points="246.52 174.64 247.63 174.64 247.63 175.36 246.52 175.36 246.52 174.64" class="cls-1"/>
                    <polygon points="249.85 174.64 254.29 174.65 254.29 175.35 249.85 175.36 249.85 174.64" class="cls-1"/>
                    <polygon points="256.51 174.66 257.62 174.66 257.62 175.34 256.51 175.34 256.51 174.66" class="cls-1"/>
                    <polygon points="259.85 174.66 264.29 174.67 264.29 175.33 259.85 175.34 259.85 174.66" class="cls-1"/>
                    <polygon points="266.51 174.68 267.62 174.68 267.62 175.32 266.51 175.32 266.51 174.68" class="cls-1"/>
                    <polygon points="269.84 174.68 274.28 174.69 274.28 175.31 269.84 175.32 269.84 174.68" class="cls-1"/>
                    <polygon points="276.5 174.69 277.61 174.7 277.61 175.3 276.5 175.31 276.5 174.69" class="cls-1"/>
                    <polygon points="279.83 174.7 284.27 174.71 284.27 175.29 279.83 175.3 279.83 174.7" class="cls-1"/>
                    <polygon points="286.5 174.71 287.61 174.72 287.61 175.28 286.5 175.29 286.5 174.71" class="cls-1"/>
                    <polygon points="289.83 174.72 294.27 174.73 294.27 175.27 289.83 175.28 289.83 174.72" class="cls-1"/>
                    <polygon points="296.49 174.73 297.6 174.74 297.6 175.26 296.49 175.27 296.49 174.73" class="cls-1"/>
                    <polygon points="299.82 174.74 304.26 174.75 304.26 175.25 299.82 175.26 299.82 174.74" class="cls-1"/>
                    <polygon points="306.48 174.76 307.59 174.76 307.59 175.24 306.48 175.24 306.48 174.76" class="cls-1"/>
                    <polygon points="309.81 174.78 314.26 174.8 314.26 175.2 309.81 175.22 309.81 174.78" class="cls-1"/>
                    <polygon points="316.48 174.81 317.59 174.82 317.59 175.18 316.48 175.19 316.48 174.81" class="cls-1"/>
                    <polygon points="319.81 174.83 324.25 174.86 324.25 175.14 319.81 175.17 319.81 174.83" class="cls-1"/>
                    <polygon points="326.47 174.87 327.58 174.88 327.58 175.13 326.47 175.13 326.47 174.87" class="cls-1"/>
                    <polygon points="329.8 174.89 334.25 174.91 334.25 175.09 329.8 175.11 329.8 174.89" class="cls-1"/>
                    <polygon points="336.47 174.92 337.58 174.93 337.58 175.07 336.47 175.08 336.47 174.92" class="cls-1"/>
                    <polygon points="339.8 174.94 344.24 174.97 344.24 175.03 339.8 175.06 339.8 174.94" class="cls-1"/>
                    <polygon points="346.46 174.98 347.57 174.99 347.57 175.01 346.46 175.02 346.46 174.98" class="cls-1"/>
                    <polygon points="349.79 175 350 175 349.79 175 349.79 175" class="cls-1"/>
                </g>
                <g id="ol-ttl">
                    <path d="M175,22.83l-1.14.66c-.75.41-1.84,1.05-3.25,1.8-2.81,1.53-6.86,3.66-11.75,6.1s-10.66,5.18-16.88,8c-3.11,1.41-6.33,2.84-9.62,4.26s-6.64,2.83-10,4.24-6.73,2.77-10.07,4.07-6.62,2.59-9.82,3.8C96.07,58.16,90.06,60.3,84.88,62s-9.55,3.09-12.63,4c-1.53.47-2.75.78-3.58,1l-1.27.34,1.14-.66c.75-.42,1.84-1.06,3.25-1.81,2.81-1.54,6.86-3.66,11.75-6.1s10.66-5.18,16.88-8c3.11-1.4,6.33-2.84,9.62-4.26s6.64-2.83,10-4.24,6.74-2.76,10.07-4.07,6.62-2.59,9.82-3.79c6.39-2.41,12.4-4.54,17.59-6.29s9.55-3.1,12.62-4c1.53-.47,2.75-.79,3.58-1Z" class="cls-2"/>
                </g>
                <g id="ol-ttr">
                    <path d="M175,22.83l1.27.34c.82.24,2,.56,3.58,1,3.07.9,7.43,2.26,12.62,4s11.2,3.88,17.59,6.29c3.2,1.2,6.49,2.47,9.82,3.79s6.7,2.69,10.07,4.07,6.72,2.81,10,4.24,6.51,2.85,9.62,4.26c6.22,2.81,12,5.55,16.88,8s8.94,4.57,11.75,6.1c1.41.75,2.5,1.39,3.25,1.81l1.14.66-1.27-.34c-.82-.24-2-.55-3.58-1-3.07-.9-7.44-2.26-12.63-4s-11.2-3.88-17.59-6.29c-3.19-1.21-6.49-2.47-9.82-3.8s-6.7-2.7-10.07-4.07-6.72-2.81-10-4.24-6.51-2.85-9.62-4.26c-6.22-2.81-12-5.56-16.88-8s-8.94-4.57-11.75-6.1c-1.41-.75-2.5-1.39-3.25-1.8Z" class="cls-2"/>
                </g>
                <g id="ol-tmr">
                    <path d="M282.6,67.4l.66,1.14c.41.75,1.05,1.84,1.8,3.25,1.53,2.81,3.66,6.86,6.1,11.75s5.18,10.66,8,16.88c1.41,3.11,2.84,6.33,4.26,9.62s2.83,6.64,4.24,10,2.77,6.73,4.07,10.07,2.59,6.62,3.8,9.82c2.41,6.39,4.54,12.4,6.29,17.59s3.09,9.55,4,12.63c.47,1.53.78,2.75,1,3.58l.34,1.27-.66-1.14c-.42-.75-1.06-1.84-1.81-3.25-1.54-2.81-3.66-6.86-6.1-11.75s-5.18-10.66-8-16.88c-1.4-3.11-2.84-6.33-4.26-9.62s-2.83-6.64-4.24-10-2.76-6.74-4.07-10.07-2.59-6.62-3.79-9.82c-2.41-6.39-4.54-12.4-6.29-17.59s-3.1-9.55-4-12.62c-.47-1.53-.79-2.75-1-3.58Z" class="cls-2"/>
                </g>
                <g id="ol-tml">
                    <path d="M67.4,67.4l-.34,1.27c-.24.82-.56,2-1,3.58-.9,3.07-2.26,7.43-4,12.62s-3.88,11.2-6.29,17.59c-1.2,3.2-2.47,6.49-3.79,9.82s-2.69,6.7-4.07,10.07-2.81,6.72-4.24,10-2.85,6.51-4.26,9.62c-2.81,6.22-5.55,12-8,16.88s-4.57,8.94-6.1,11.75c-.75,1.41-1.39,2.5-1.81,3.25L22.83,175l.34-1.27c.24-.82.55-2,1-3.58.9-3.07,2.26-7.44,4-12.63s3.88-11.2,6.29-17.59c1.21-3.19,2.47-6.49,3.8-9.82s2.7-6.7,4.07-10.07,2.81-6.72,4.24-10,2.85-6.51,4.26-9.62c2.81-6.22,5.56-12,8-16.88s4.57-8.94,6.1-11.75c.75-1.41,1.39-2.5,1.8-3.25Z" class="cls-3"/>
                </g>
                <g id="ol-bml">
                    <path d="M22.83,175l.66,1.14c.41.75,1.05,1.84,1.8,3.25,1.53,2.81,3.66,6.86,6.1,11.75s5.18,10.66,8,16.88c1.41,3.11,2.84,6.33,4.26,9.62s2.83,6.64,4.24,10,2.77,6.73,4.07,10.07,2.59,6.62,3.8,9.82c2.41,6.39,4.54,12.4,6.29,17.59s3.09,9.55,4,12.63c.47,1.53.78,2.75,1,3.58l.34,1.27-.66-1.14c-.42-.75-1.06-1.84-1.81-3.25-1.54-2.81-3.66-6.86-6.1-11.75s-5.18-10.66-8-16.88c-1.4-3.11-2.84-6.33-4.26-9.62s-2.83-6.64-4.24-10-2.76-6.74-4.07-10.07-2.59-6.62-3.79-9.82c-2.41-6.39-4.54-12.4-6.29-17.59s-3.1-9.55-4-12.62c-.47-1.53-.79-2.75-1-3.58Z" class="cls-4"/>
                </g>
                <g id="ol-bmr">
                    <path d="M282.6,282.6l.34-1.27c.24-.82.56-2,1-3.58.9-3.07,2.26-7.43,4-12.62s3.88-11.2,6.29-17.59c1.2-3.2,2.47-6.49,3.79-9.82s2.69-6.7,4.07-10.07,2.81-6.72,4.24-10,2.85-6.51,4.26-9.62c2.81-6.22,5.55-12,8-16.88s4.57-8.94,6.1-11.75c.75-1.41,1.39-2.5,1.81-3.25l.66-1.14-.34,1.27c-.24.82-.55,2-1,3.58-.9,3.07-2.26,7.44-4,12.63s-3.88,11.2-6.29,17.59c-1.21,3.19-2.47,6.49-3.8,9.82s-2.7,6.7-4.07,10.07-2.81,6.72-4.24,10-2.85,6.51-4.26,9.62c-2.81,6.22-5.56,12-8,16.88s-4.57,8.94-6.1,11.75c-.75,1.41-1.39,2.5-1.8,3.25Z" class="cls-3"/>
                </g>
                <g id="ol-bbr">
                    <path d="M282.6,282.6l-1.14.66c-.75.41-1.84,1.05-3.25,1.8-2.81,1.53-6.86,3.66-11.75,6.1s-10.66,5.18-16.88,8c-3.11,1.41-6.33,2.84-9.62,4.26s-6.64,2.83-10,4.24-6.73,2.77-10.07,4.07-6.62,2.59-9.82,3.8c-6.39,2.41-12.4,4.54-17.59,6.29s-9.55,3.09-12.63,4c-1.53.47-2.75.78-3.58,1l-1.27.34,1.14-.66c.75-.42,1.84-1.06,3.25-1.81,2.81-1.54,6.86-3.66,11.75-6.1s10.66-5.18,16.88-8c3.11-1.4,6.33-2.84,9.62-4.26s6.64-2.83,10-4.24,6.74-2.76,10.07-4.07,6.62-2.59,9.82-3.79c6.39-2.41,12.4-4.54,17.59-6.29s9.55-3.1,12.62-4c1.53-.47,2.75-.79,3.58-1Z" class="cls-3"/>
                </g>
                <g id="ol-bbl">
                    <path d="M67.4,282.6l1.27.34c.82.24,2,.56,3.58,1,3.07.9,7.43,2.26,12.62,4s11.2,3.88,17.59,6.29c3.2,1.2,6.49,2.47,9.82,3.79s6.7,2.69,10.07,4.07,6.72,2.81,10,4.24,6.51,2.85,9.62,4.26c6.22,2.81,12,5.55,16.88,8s8.94,4.57,11.75,6.1c1.41.75,2.5,1.39,3.25,1.81l1.14.66-1.27-.34c-.82-.24-2-.55-3.58-1-3.07-.9-7.44-2.26-12.63-4s-11.2-3.88-17.59-6.29c-3.19-1.21-6.49-2.47-9.82-3.8s-6.7-2.7-10.07-4.07-6.72-2.81-10-4.24-6.51-2.85-9.62-4.26c-6.22-2.81-12-5.56-16.88-8s-8.94-4.57-11.75-6.1c-1.41-.75-2.5-1.39-3.25-1.8Z" class="cls-3"/>
                </g>
                <g id="il-r1">
                    <path d="M175,22.83l1.42,2.83c.91,1.85,2.28,4.56,3.94,8s3.72,7.67,6,12.53,4.87,10.32,7.59,16.32,5.73,12.49,8.78,19.4,6.35,14.16,9.59,21.74S219,119,222.35,127s6.77,16.07,10.15,24.18,6.7,16.25,9.93,24.27,6.39,15.93,9.41,23.59,5.87,15.11,8.57,22.16l3.92,10.28,3.58,9.64c2.32,6.17,4.37,11.86,6.18,16.91s3.36,9.46,4.63,13.09,2.22,6.51,2.89,8.46l1,3-1.42-2.83c-.91-1.85-2.28-4.55-3.94-8s-3.72-7.67-6-12.53-4.87-10.32-7.59-16.32l-4.29-9.35-4.5-10c-3.08-6.9-6.34-14.17-9.61-21.73s-6.66-15.37-10-23.34-6.76-16.07-10.14-24.18S218.41,138,215.19,130s-6.34-16-9.39-23.6-5.88-15.1-8.59-22.15S192,70.47,189.7,64.29s-4.36-11.86-6.18-16.91-3.36-9.46-4.63-13.09-2.22-6.51-2.9-8.46Z" class="cls-6"/>
                </g>
                <g id="il-r2">
                    <path d="M22.83,175l2.83-1.42c1.85-.9,4.56-2.28,8-3.93s7.67-3.72,12.53-6,10.32-4.87,16.32-7.59,12.49-5.73,19.4-8.78,14.16-6.35,21.74-9.59S119,131,127,127.65s16.07-6.77,24.18-10.15,16.25-6.7,24.27-9.93,15.93-6.39,23.59-9.41,15.11-5.87,22.16-8.57l10.28-3.92,9.64-3.58c6.17-2.32,11.86-4.37,16.91-6.18s9.46-3.36,13.09-4.63,6.51-2.22,8.46-2.89l3-1-2.83,1.42c-1.85.91-4.55,2.28-8,3.94s-7.67,3.72-12.53,6-10.32,4.87-16.32,7.59l-9.35,4.29-10,4.5c-6.9,3.08-14.17,6.34-21.73,9.61s-15.37,6.66-23.34,10-16.07,6.76-24.18,10.14S138,131.59,130,134.81s-16,6.34-23.6,9.39-15.1,5.88-22.15,8.59S70.47,158,64.29,160.3s-11.86,4.36-16.91,6.18-9.46,3.36-13.09,4.63-6.51,2.22-8.46,2.9Z" class="cls-5"/>
                </g>
                <g id="il-r7">
                    <path d="M175,327.17l-1.42-2.83c-.9-1.85-2.28-4.56-3.93-8s-3.72-7.67-6-12.53-4.87-10.32-7.59-16.32-5.73-12.49-8.78-19.4-6.35-14.16-9.59-21.74S131,231,127.65,223s-6.77-16.07-10.15-24.18-6.7-16.25-9.93-24.27-6.39-15.93-9.41-23.59-5.87-15.11-8.57-22.16l-3.92-10.28-3.58-9.64C79.77,102.69,77.72,97,75.91,92s-3.36-9.46-4.63-13.09-2.22-6.51-2.89-8.46l-1-3,1.42,2.83c.91,1.85,2.28,4.55,3.94,8s3.72,7.67,6,12.53,4.87,10.32,7.59,16.32l4.29,9.35,4.5,10c3.08,6.9,6.34,14.17,9.61,21.73s6.66,15.37,10,23.34,6.76,16.07,10.14,24.18S131.59,212,134.81,220s6.34,16,9.39,23.6,5.88,15.1,8.59,22.15,5.22,13.74,7.51,19.92,4.36,11.86,6.18,16.91,3.36,9.46,4.63,13.09,2.22,6.51,2.9,8.46Z" class="cls-6"/>
                </g>
                <g id="il-r5">
                    <path d="M327.17,175l-2.83,1.42c-1.85.9-4.56,2.28-8,3.94s-7.67,3.72-12.53,6-10.32,4.87-16.32,7.59-12.49,5.73-19.4,8.78-14.16,6.35-21.74,9.59S231,219,223,222.35s-16.07,6.77-24.18,10.15-16.25,6.7-24.27,9.93-15.93,6.39-23.59,9.41-15.11,5.87-22.16,8.57l-10.28,3.92-9.64,3.58c-6.17,2.32-11.86,4.37-16.91,6.18s-9.46,3.36-13.09,4.63-6.51,2.22-8.46,2.89l-3,1,2.83-1.42c1.85-.91,4.55-2.28,8-3.94s7.67-3.72,12.53-6,10.32-4.87,16.32-7.59l9.35-4.29,10-4.5c6.9-3.08,14.17-6.34,21.73-9.61s15.37-6.66,23.34-10,16.07-6.76,24.18-10.14S212,218.41,220,215.19s16-6.34,23.6-9.39,15.1-5.88,22.15-8.59,13.74-5.22,19.92-7.51,11.86-4.36,16.91-6.18,9.46-3.36,13.09-4.63,6.51-2.22,8.46-2.9Z" class="cls-5"/>
                </g>
                <g id="il-l1">
                    <path d="M175,22.83l-1,3c-.67,2-1.61,4.83-2.9,8.46s-2.79,8.06-4.63,13.09-3.86,10.74-6.18,16.91-4.78,12.88-7.51,19.92-5.53,14.5-8.59,22.15S138.08,122,134.81,130s-6.58,16.15-9.92,24.27-6.75,16.23-10.14,24.18-6.74,15.78-10,23.34-6.53,14.83-9.61,21.73l-4.5,10-4.29,9.35c-2.72,6-5.3,11.48-7.59,16.32s-4.31,9.06-6,12.53-3,6.17-3.94,8L67.4,282.6l1-3c.67-2,1.61-4.83,2.89-8.46s2.79-8.06,4.63-13.09,3.86-10.74,6.18-16.91l3.58-9.64,3.92-10.28c2.7-7.05,5.54-14.5,8.57-22.16s6.16-15.58,9.41-23.59,6.58-16.15,9.93-24.27S124.26,135,127.65,127s6.8-15.76,10.05-23.33,6.52-14.84,9.59-21.74,6-13.4,8.78-19.4,5.3-11.48,7.59-16.32,4.31-9.06,6-12.53,3-6.18,3.93-8Z" class="cls-3"/>
                </g>
                <g id="il-r4">
                    <path d="M327.17,175l-3-1c-2-.67-4.83-1.61-8.46-2.9s-8.06-2.79-13.09-4.63-10.74-3.86-16.91-6.18-12.88-4.78-19.92-7.51-14.5-5.53-22.15-8.59S228,138.08,220,134.81s-16.15-6.58-24.27-9.92-16.23-6.75-24.18-10.14-15.78-6.74-23.34-10-14.83-6.53-21.73-9.61l-10-4.5-9.35-4.29c-6-2.72-11.48-5.3-16.32-7.59s-9.06-4.31-12.53-6-6.17-3-8-3.94L67.4,67.4l3,1c2,.67,4.83,1.61,8.46,2.89S86.92,74.08,92,75.91s10.74,3.86,16.91,6.18l9.64,3.58,10.28,3.92c7.05,2.7,14.5,5.54,22.16,8.57s15.58,6.16,23.59,9.41,16.15,6.58,24.27,9.93S215,124.26,223,127.65s15.76,6.8,23.33,10.05,14.84,6.52,21.74,9.59,13.4,6,19.4,8.78,11.48,5.3,16.32,7.59,9.06,4.31,12.53,6,6.18,3,8,3.94Z" class="cls-19"/>
                </g>
                <g id="il-r3">
                    <path d="M282.6,67.4l-1,3c-.67,2-1.61,4.83-2.9,8.46s-2.79,8.06-4.63,13.09-3.86,10.74-6.18,16.91-4.78,12.88-7.51,19.92-5.53,14.5-8.59,22.15-6.12,15.59-9.39,23.6-6.58,16.15-9.92,24.27S225.74,215,222.35,223s-6.74,15.78-10,23.34-6.53,14.83-9.61,21.73l-4.5,10-4.29,9.35c-2.72,6-5.3,11.48-7.59,16.32s-4.31,9.06-6,12.53-3,6.17-3.94,8L175,327.17l1-3c.67-2,1.61-4.83,2.89-8.46s2.79-8.06,4.63-13.09,3.86-10.74,6.18-16.91l3.58-9.64,3.92-10.28c2.7-7.05,5.54-14.5,8.57-22.16S211.93,228,215.18,220s6.58-16.15,9.93-24.27,6.76-16.22,10.15-24.18,6.8-15.76,10.05-23.33,6.52-14.84,9.59-21.74,6-13.4,8.78-19.4,5.3-11.48,7.59-16.32,4.31-9.06,6-12.53,3-6.18,3.93-8Z" class="cls-3"/>
                </g>
                <g id="il-r6-f_" data-name="il-r6-f;">
                    <path d="M282.6,282.6l-3-1c-2-.67-4.83-1.61-8.46-2.9s-8.06-2.79-13.09-4.63-10.74-3.86-16.91-6.18-12.88-4.78-19.92-7.51-14.5-5.53-22.15-8.59-15.59-6.12-23.6-9.39-16.15-6.58-24.27-9.92S135,225.74,127,222.35s-15.78-6.74-23.34-10-14.83-6.53-21.73-9.61l-10-4.5-9.35-4.29c-6-2.72-11.48-5.3-16.32-7.59s-9.06-4.31-12.53-6-6.17-3-8-3.94L22.83,175l3,1c2,.67,4.83,1.61,8.46,2.89s8.06,2.79,13.09,4.63,10.74,3.86,16.91,6.18l9.64,3.58,10.28,3.92c7.05,2.7,14.5,5.54,22.16,8.57S122,211.93,130,215.18s16.15,6.58,24.27,9.93,16.22,6.76,24.18,10.15,15.76,6.8,23.33,10.05,14.84,6.52,21.74,9.59,13.4,6,19.4,8.78,11.48,5.3,16.32,7.59,9.06,4.31,12.53,6,6.18,3,8,3.93Z" class="cls-19"/>
                </g>
                <path d="M327.18,175q15.21,76.08-44.57,107.6Q251.09,342.39,175,327.17,98.92,342.38,67.4,282.6,7.61,251.09,22.83,175,7.62,98.91,67.4,67.39,98.91,7.6,175,22.82,251.09,7.61,282.61,67.39,342.4,98.91,327.18,175Z" class="cls-7"/>
                <circle id="path4308" cx="175" cy="22.83" r="2.13" class="cls-8"/>
                <circle id="path4308-0" cx="282.6" cy="67.4" r="2.13" class="cls-8"/>
                <circle id="path4308-1" cx="327.17" cy="175" r="2.13" class="cls-8"/>
                <circle id="path4308-8" cx="67.4" cy="282.6" r="2.13" class="cls-8"/>
                <circle id="path4308-84" cx="175" cy="327.17" r="2.13" class="cls-8"/>
                <circle id="path4308-4" cx="282.6" cy="282.6" r="2.13" class="cls-8"/>
                <circle id="path4308-7" cx="22.83" cy="175" r="2.13" class="cls-8"/>
                <circle id="path4308-3" cx="67.4" cy="67.4" r="2.13" class="cls-8"/>
            </g>
        </g>
    </g>
    <g id="Comstar_x5F_" class="com_nam">
        <linearGradient id="_Path__1_" x1="449.1588" x2="453.9088" y1="274.9008" y2="342.2408" gradientTransform="matrix(1 0 0 1 0 -202)" gradientUnits="userSpaceOnUse">
            <stop offset="0" style="stop-color:#232F42"/>
            <stop offset="0.15" style="stop-color:#2A3240;stop-opacity:0.95"/>
            <stop offset="0.28" style="stop-color:#3E393B;stop-opacity:0.81"/>
            <stop offset="0.41" style="stop-color:#604631;stop-opacity:0.56"/>
            <stop offset="0.53" style="stop-color:#905825;stop-opacity:0.21"/>
            <stop offset="0.53" style="stop-color:#925924;stop-opacity:0.2"/>
            <stop offset="0.56" style="stop-color:#6F4B2A;stop-opacity:0.43"/>
            <stop offset="0.61" style="stop-color:#473A32;stop-opacity:0.68"/>
            <stop offset="0.67" style="stop-color:#2B2F37;stop-opacity:0.87"/>
            <stop offset="0.76" style="stop-color:#1A283A;stop-opacity:0.97"/>
            <stop offset="1" style="stop-color:#16263B"/>
        </linearGradient>
        <path id="_Path_" d="M511.1,149c10.6-1,24.7-6.4,28.8-8.4c1.4-0.7,2.3-2.2,2.3-3.8c-0.2-5.4-1.9-17.2-12.5-25.4
			c-13-10.1-29.6-8-29.6-8c-22.4-0.1-56.8,30.8-60.6,34.8c-13.6,14.4-30,8.6-30.4,8.5l0,0c-18.4-7.1-15.9-25.2-16-26.9
			s2.4-18.6,19.4-21.5c9.8-1.6,19.8,1.7,26.5,9c0.3,0.3,0.7,0.3,1,0.1l19-15.3c0.3-0.3,0.3-0.7,0.1-1c-7.5-8.2-17.3-14-28.1-16.5
			c-18.1-3.9-33.7,0.6-41.7,4.9c-12,6.5-20.6,17.9-23.6,31.2c-3.9,17.1,0.8,32.1,7.4,41.3s19.1,17.9,34,19.9s24.3-0.6,26.8-1.5
			c0,0,15.9-4.4,25.6-16.2s30-27.7,40.7-29.3c0,0,9.3-2.4,13.8,5.1c0,0,6.4,9-1.2,17.5C512.7,147.6,511.1,149,511.1,149z" class="st16"/>
        <linearGradient id="_Path_4_1_" x1="690.4737" x2="695.2237" y1="257.9127" y2="325.2427" gradientTransform="matrix(1 0 0 1 0 -202)" gradientUnits="userSpaceOnUse">
            <stop offset="0" style="stop-color:#232F42"/>
            <stop offset="0.15" style="stop-color:#2A3240;stop-opacity:0.95"/>
            <stop offset="0.28" style="stop-color:#3E393B;stop-opacity:0.81"/>
            <stop offset="0.41" style="stop-color:#604631;stop-opacity:0.56"/>
            <stop offset="0.53" style="stop-color:#905825;stop-opacity:0.21"/>
            <stop offset="0.53" style="stop-color:#925924;stop-opacity:0.2"/>
            <stop offset="0.56" style="stop-color:#6F4B2A;stop-opacity:0.43"/>
            <stop offset="0.61" style="stop-color:#473A32;stop-opacity:0.68"/>
            <stop offset="0.67" style="stop-color:#2B2F37;stop-opacity:0.87"/>
            <stop offset="0.76" style="stop-color:#1A283A;stop-opacity:0.97"/>
            <stop offset="1" style="stop-color:#16263B"/>
        </linearGradient>
        <path id="_Path_4" d="M664.7,121.4c-2.2-10.1-8.4-14-8.4-14c-1.2-0.7-6.4-5.3-19.4-4.2s-19.4,9.3-19.4,9.3h-0.3
			c-6.6-11-21.4-9.5-21.4-9.5s-10.7,0.3-17.8,9.1c-21.7,27.1-48,35.5-69.5,38.2c-3,0.4-7.2,2.4-11.8-0.7c-8.1-5.4-6.7-13-5.1-17.1
			c0.3-0.7-0.1-1.6-0.8-1.8c-0.4-0.2-0.8-0.1-1.2,0.1c-6.3,3.4-14.5,10.2-19.3,14.5c-2.7,2.3-3.3,6.2-1.5,9.3c2.9,5.1,7,9.4,12,12.4
			c11.7,7.3,25.5,5.4,25.9,5.4c25-1,54.4-20.4,71.5-41c1.3-1.6,3.9-6.8,9.1-6.7c5.9,0.1,7,3.3,8.2,6.2c0,0.1,0,0.1,0.1,0.2
			c0.4,1.5,0.7,3,0.7,4.6v33.1c0,1.5,1.2,2.7,2.7,2.7h20.6c1.5,0,2.7-1.2,2.7-2.7v-33.2c0,0,0.2-6,3.8-9c2.2-1.8,5.2-2.4,8-1.7
			c1.9,0.5,3.4,1.7,4.3,3.4c1.1,2.4,1.7,5,1.7,7.6c0.2,3,0.1,25.1,0,32.8c0,1.5,1.2,2.7,2.6,2.7l0,0H663c1.5,0,2.7-1.2,2.7-2.7v-2.9
			c0-2.3,1.9-4.2,4.2-4.2c1,0,1.9,0.3,2.7,1l0.1,0.1c4.7,3.8,5.3,4.2,12.6,7.3s17.6,3,23.4,2.3s11.9-2.6,16-6.2
			c2.3-1.9,4.1-4.4,5.2-7.2c1.2-2.8,1.7-5.7,1.6-8.7c-0.1-4.8-1.3-9-4.5-12.4s-8.8-5.6-8.8-5.6s-5.8-2.4-10-3.6
			c-2.5-0.7-5-1.6-7.4-2.7c-2.9-1.4-2-2.8-2-2.8s0.2-1.6,3.4-2.2s33.1,2.8,30.6,2.5l8.9,0.3c1.1,0,1.9,0.9,1.9,1.9v27.9
			c0,0,0.7,14.5,14.6,18.5h0.1c0.9,0.2,15.3,4.2,27.2-4.3c4.2-3,7-12.7,8.5-15.4c5.3-9.9,22.3-26.9,31.6-27.7
			c0,0,13.1-1.7,14.5,12.4c0,0.1,0,0.1,0,0.2c0,1.1,0.2,11.8-9.8,14c0,0-13.9,2.8-15.1-12.1c-0.2-2.2,0.9-4.3,2.8-5.5
			c6.2-3.9,23.1-13.4,54.2-25.1c2-0.8,4.2,0.3,5,2.2c0.2,0.4,0.2,0.9,0.3,1.4v56.7c0,1.5,1.2,2.7,2.7,2.7h20.4
			c1.5,0,2.6-1.2,2.6-2.7v-27.9c0,0-0.1-10.9,12.6-11.7h6.9l0.7,0.1V106c0.1-1.4-1.1-2.6-2.5-2.7c-0.2,0-0.4,0-0.6,0
			c-4.7,0.7-9.1,2.7-12.7,5.8c-1.1,0.9-2.8,0.7-3.7-0.4c-0.4-0.5-0.6-1.1-0.6-1.7v-0.2c0.1-1.1-0.6-2.1-1.7-2.3c-0.1,0-0.1,0-0.2,0
			h-18.9c-3.4,0-6.8,0.6-10,1.7c-12.5,4.5-42.9,16.3-56.6,26.2c-7.9,5.7-14.6,13-19.5,21.4c-1.4,2.5-1.1,5.6,0.8,7.8
			c1.1,1.3,2.4,2.6,3.7,3.8c5.8,4.6,12.9,7.2,20.2,7.4c5.9,0.3,11.6-1.4,16.3-4.9c0.9-0.6,2.1-0.5,2.7,0.4c0.2,0.3,0.4,0.7,0.4,1.1
			l0,0c0,1.1,0.9,1.9,1.9,1.9H862c1.5,0,2.7-1.2,2.7-2.7v-61.5c0-1.5-1.2-2.7-2.7-2.7h-21.4c-1.1,0-1.9,0.9-1.9,1.9v0.3
			c0,1.1-0.9,1.9-1.9,1.9c-0.4,0-0.9-0.1-1.2-0.4c-0.7-0.6-1.3-1-1.5-1.2l-0.1-0.1c-2.3-1.4-8.4-5.4-19.8-3.3
			c-7.1,1.4-13.4,5.4-17.9,11.1c-14.9,22.4-8.5,32.3-16.9,36c-10.2,4.5-10-4.1-10-4.1v-20.2c0-1.5,1.2-2.7,2.7-2.7h10.2
			c1.5,0,2.7-1.2,2.7-2.7v-14.2c0-1.5-1.2-2.7-2.7-2.7H772c-1.5,0-2.7-1.2-2.7-2.7V83.9c0-1.5-1.2-2.7-2.7-2.7c-0.1,0-0.2,0-0.2,0
			l-20.5,2c-1.4,0.1-2.4,1.3-2.4,2.6v16.7c0,1.1-0.8,1.9-1.9,1.9l0,0c-1.1,0-42-1.3-42.8-1.3c-6,0.1-16.2,3.5-20.5,10.9
			c-2.6,4.3-3.6,9.4-3,14.4c0,0.8,1.5,6.6,4.5,9.6c2,1.9,4.3,3.6,6.7,5.1c2.8,1.4,5.6,2.6,8.6,3.5c2.8,0.9,5.8,1.6,7.3,2.1
			c1.1,0.4,2.2,0.9,3.3,1.5c0.9,0.3,1.5,1.2,1.6,2.1c0,0,0.4,2.1-2.5,2.8c-2.2,0.4-4.5,0.3-6.7-0.2c-5.1-1.4-9.8-3.8-13.8-7.2
			c-6.2-5.4-17.5-10.4-18.5-18.3L664.7,121.4" class="st17"/>
    </g>
    <g id="Insur_x5F_brok" class="brok">
        <path d="M364.3,206.2h6.2v53.1h-6.2V206.2z" class="st18"/>
        <path d="M408.1,259.3v-21.6c0-3.9-0.6-6.9-1.7-8.9s-3.2-3-6.2-3c-2.4-0.1-4.7,0.7-6.5,2.2c-1.7,1.4-3,3.3-3.6,5.4v26
			h-6v-37.9h4.2l1.1,4.6h0.3c1.3-1.7,2.9-3.1,4.8-4c2.3-1.1,4.7-1.6,7.2-1.6c1.8,0,3.6,0.2,5.4,0.7c1.5,0.5,2.8,1.3,3.9,2.5
			c1.1,1.4,1.9,3.1,2.3,4.9c0.6,2.6,0.8,5.2,0.8,7.8v22.9L408.1,259.3z" class="st18"/>
        <path d="M441.5,249c0.1-1.3-0.4-2.6-1.4-3.6c-1-0.9-2.1-1.6-3.3-2.2c-1.3-0.6-2.8-1.1-4.3-1.7c-1.5-0.5-3-1.2-4.3-2
			s-2.5-1.9-3.3-3.2c-1-1.6-1.4-3.4-1.4-5.3c0-3.6,1-6.3,3.1-8c2-1.7,4.9-2.5,8.5-2.5c2.3,0,4.6,0.2,6.8,0.7c1.6,0.4,3.2,1,4.8,1.7
			l-1.4,5c-1.3-0.6-2.7-1.1-4.2-1.5c-1.7-0.4-3.5-0.7-5.2-0.6c-1.7-0.1-3.4,0.3-4.8,1.1c-1,0.8-1.5,2.1-1.5,3.9
			c-0.1,1.2,0.4,2.3,1.4,3.1s2.1,1.5,3.3,2c1.3,0.6,2.8,1.1,4.3,1.7c1.5,0.5,3,1.3,4.3,2.2s2.5,2.1,3.3,3.4c1,1.7,1.4,3.6,1.4,5.5
			c0,1.6-0.3,3.1-0.8,4.6c-0.5,1.4-1.3,2.6-2.4,3.6c-1.2,1.1-2.6,1.9-4.1,2.4c-1.8,0.6-3.8,0.9-5.7,0.9c-2.4,0-4.9-0.2-7.3-0.8
			c-1.7-0.5-3.4-1.1-5-2l1.8-5.2c1.4,0.8,2.9,1.4,4.5,1.8c1.8,0.6,3.7,0.8,5.6,0.8c1.9,0.1,3.7-0.4,5.3-1.3
			C440.8,252.8,441.5,251.2,441.5,249z" class="st18"/>
        <path d="M461.9,221.4V243c0,1.7,0.1,3.5,0.3,5.2c0.2,1.3,0.6,2.6,1.2,3.7c0.5,1,1.3,1.7,2.2,2.2
			c1.1,0.5,2.4,0.8,3.6,0.8s2.5-0.2,3.6-0.6c1-0.4,2-1,2.8-1.8s1.6-1.7,2.2-2.6c0.6-1,1.1-2,1.5-3.1v-25.3h6v27.2
			c0,1.8,0.1,3.7,0.2,5.6c0.1,1.7,0.3,3.4,0.6,5.1H482l-1.5-6h-0.4c-1.2,2-2.7,3.7-4.6,4.9c-2.2,1.4-4.8,2.1-7.4,2
			c-1.8,0-3.6-0.2-5.3-0.7c-1.5-0.4-2.9-1.3-3.9-2.5c-1.1-1.4-1.9-3.1-2.3-4.9c-0.6-2.6-0.8-5.2-0.8-7.8v-22.9L461.9,221.4
			L461.9,221.4z" class="st18"/>
        <path d="M514.6,227.2c-1.4-0.5-2.8-0.7-4.3-0.8c-1.9-0.1-3.7,0.5-5.1,1.8c-1.3,1.2-2.1,2.8-2.3,4.5v26.6h-6v-37.9
			h4.2l1.1,4.6h0.3c0.8-1.6,2-2.9,3.4-4c1.5-1,3.3-1.5,5.1-1.4c1.7,0,3.3,0.3,4.9,0.8L514.6,227.2z" class="st18"/>
        <path d="M521.8,224.2c2.1-1.2,4.3-2.1,6.6-2.6c2.6-0.6,5.2-0.8,7.9-0.8c2.1-0.1,4.3,0.3,6.2,1.1
			c1.4,0.6,2.7,1.5,3.6,2.8c0.8,1.1,1.4,2.4,1.7,3.8c0.3,1.3,0.4,2.7,0.4,4.1c0,3-0.1,6-0.2,8.9c-0.2,2.9-0.2,5.6-0.2,8.2
			c0,1.9,0.1,3.6,0.2,5.3c0.1,1.6,0.4,3.1,0.8,4.6h-4.4l-1.6-5.3h-0.4c-0.5,0.8-1.1,1.5-1.7,2.1c-0.7,0.7-1.5,1.3-2.4,1.8
			c-1,0.6-2.1,1-3.3,1.3c-1.4,0.4-2.8,0.5-4.3,0.5s-3-0.2-4.5-0.8c-1.3-0.5-2.5-1.2-3.6-2.2c-1-0.9-1.8-2.1-2.4-3.4
			c-0.6-1.4-0.9-2.9-0.9-4.5c-0.1-1.9,0.4-3.9,1.3-5.6c0.9-1.5,2.2-2.7,3.8-3.6c1.8-1,3.8-1.6,5.8-1.9c2.5-0.4,5-0.6,7.5-0.6h2.1
			c0.7,0,1.4,0.1,2.1,0.1c0.1-1.5,0.2-2.9,0.2-4.1c0-2.8-0.6-4.7-1.7-5.8c-1.1-1.1-3.1-1.7-6-1.7c-0.9,0-1.8,0.1-2.7,0.2
			c-1,0.1-2,0.3-3,0.6c-1,0.2-2,0.5-2.9,0.9c-0.8,0.3-1.7,0.7-2.4,1.1L521.8,224.2z M532.4,254.6c1.3,0,2.5-0.2,3.7-0.6
			c1-0.3,2-0.8,2.8-1.4c0.8-0.5,1.4-1.2,2-1.9c0.5-0.6,0.9-1.3,1.2-2v-6.3c-0.7-0.1-1.4-0.1-2.1-0.1c-0.7,0-1.4,0-2.1,0
			c-1.5,0-3,0.1-4.5,0.3c-1.3,0.1-2.6,0.5-3.9,1c-1.1,0.4-2,1.1-2.7,2s-1,2-1,3.1c0,1.7,0.6,3.3,1.9,4.4
			C529,254.2,530.7,254.7,532.4,254.6L532.4,254.6z" class="st18"/>
        <path d="M583.6,259.3v-21.6c0-3.9-0.6-6.9-1.7-8.9s-3.2-3-6.2-3c-2.4-0.1-4.7,0.7-6.5,2.2c-1.7,1.4-3,3.3-3.6,5.4v26
			h-6v-37.9h4.2l1.1,4.6h0.3c1.3-1.7,2.9-3.1,4.8-4c2.3-1.1,4.7-1.6,7.2-1.6c1.8,0,3.6,0.2,5.4,0.7c1.5,0.5,2.8,1.3,3.9,2.5
			c1.1,1.4,1.9,3.1,2.3,4.9c0.6,2.6,0.8,5.2,0.8,7.8v22.9L583.6,259.3z" class="st18"/>
        <path d="M626,256.8c-1.6,1.2-3.4,2-5.3,2.5c-2.1,0.6-4.3,0.9-6.4,0.9c-2.5,0.1-5-0.4-7.3-1.4c-2-0.9-3.6-2.3-4.9-4
			c-1.3-1.9-2.3-4-2.8-6.3c-0.6-2.7-0.9-5.4-0.9-8.2c0-6.4,1.4-11.3,4.2-14.8s6.8-5.1,12.1-5.1c2,0,4.1,0.2,6.1,0.6
			c1.6,0.3,3.1,0.9,4.5,1.6l-1.7,5.2c-1.2-0.7-2.5-1.2-3.8-1.6c-1.5-0.4-3-0.6-4.5-0.6c-7.1,0-10.6,4.9-10.6,14.6
			c0,1.8,0.2,3.7,0.6,5.5c0.3,1.6,1,3.2,1.9,4.6c0.9,1.3,2.1,2.4,3.5,3.2c1.6,0.9,3.4,1.3,5.3,1.2c1.6,0,3.3-0.3,4.8-0.8
			c1.2-0.5,2.4-1.1,3.5-1.9L626,256.8z" class="st18"/>
        <path d="M659.9,256.3c-1.7,1.3-3.6,2.3-5.7,2.9c-2.3,0.7-4.8,1.1-7.2,1.1c-2.5,0.1-5.1-0.4-7.4-1.4
			c-2-0.9-3.8-2.3-5.2-4c-1.4-1.9-2.4-4-3-6.3c-0.7-2.7-1-5.4-1-8.2c0-6.5,1.4-11.4,4.3-14.8c2.8-3.4,6.9-5.1,12.2-5.1
			c1.7,0,3.4,0.2,5.1,0.6c1.7,0.4,3.2,1.1,4.6,2.2c1.5,1.2,2.6,2.8,3.3,4.5c0.9,2.5,1.4,5.1,1.3,7.7c0,1.9-0.2,3.7-0.5,5.5h-24
			c0,2,0.2,4,0.7,5.9c0.4,1.6,1.1,3.1,2.1,4.4c1,1.2,2.3,2.2,3.7,2.7c1.8,0.7,3.7,1,5.6,0.9c1.7,0,3.5-0.3,5.1-0.9
			c1.4-0.4,2.7-1.2,3.8-2.1L659.9,256.3z M647,225.8c-2.6-0.1-5.1,0.7-7.1,2.4c-1.8,1.6-2.8,4.2-3.2,8h18.6c0-3.8-0.7-6.5-2.2-8.1
			C651.5,226.5,649.3,225.6,647,225.8z" class="st18"/>
        <path d="M722.8,218.4c0,1.3-0.2,2.6-0.6,3.9c-0.4,1.3-1,2.6-1.8,3.7c-0.8,1.2-1.9,2.2-3.1,3c-1.3,0.9-2.8,1.6-4.4,2
			v0.3c1.5,0.2,2.9,0.7,4.3,1.3c1.4,0.6,2.6,1.4,3.6,2.5c1.1,1.1,2,2.4,2.5,3.9c0.7,1.7,1,3.5,1,5.4c0.1,2.5-0.5,4.9-1.7,7.1
			c-1.1,1.9-2.6,3.6-4.4,4.9c-1.9,1.3-4,2.2-6.3,2.8c-2.3,0.6-4.8,0.9-7.2,0.9h-3c-1.1,0-2.3,0-3.6-0.1s-2.5-0.2-3.7-0.3
			c-1.1-0.1-2.2-0.3-3.3-0.6v-52.2c1.8-0.3,4-0.6,6.4-0.8s5.1-0.3,8-0.3c2,0,4,0.2,6,0.5c1.9,0.3,3.8,0.9,5.5,1.9
			C720.9,210.1,723.1,214.1,722.8,218.4L722.8,218.4z M701.3,229.6c0.8,0,1.9,0,3.1-0.1c1.2-0.1,2.2-0.1,3-0.2
			c1.2-0.4,2.3-0.9,3.4-1.5c1-0.5,2-1.2,2.8-2s1.5-1.7,2-2.7c0.5-1.1,0.7-2.2,0.7-3.4c0.1-1.4-0.3-2.9-0.9-4.1
			c-0.6-1.1-1.5-2-2.5-2.6c-1.1-0.7-2.3-1.2-3.6-1.4c-1.4-0.3-2.7-0.4-4.1-0.4c-1.6,0-3.2,0-4.5,0.1c-1,0-2.1,0.2-3.1,0.3v18
			L701.3,229.6L701.3,229.6z M705.4,254.5c1.6,0,3.1-0.2,4.6-0.6c1.4-0.3,2.8-1,4-1.8c1.1-0.8,2.1-1.9,2.7-3.1c0.7-1.3,1-2.8,1-4.3
			c0.1-1.8-0.3-3.5-1.2-5c-0.8-1.3-1.9-2.3-3.2-3c-1.4-0.7-2.9-1.2-4.5-1.4c-1.6-0.3-3.3-0.4-4.9-0.4h-6.5v19c0.5,0.1,1,0.2,1.5,0.2
			l2.1,0.1c0.7,0.1,1.5,0.1,2.3,0.1C704.1,254.5,704.8,254.5,705.4,254.5L705.4,254.5z" class="st18"/>
        <path d="M752,227.2c-1.4-0.5-2.8-0.7-4.3-0.8c-1.9-0.1-3.7,0.5-5.1,1.8c-1.3,1.2-2.1,2.8-2.3,4.5v26.6h-6v-37.9h4.2
			l1.1,4.6h0.3c0.8-1.6,2-2.9,3.4-4c1.5-1,3.3-1.5,5.1-1.4c1.7,0,3.3,0.3,4.9,0.8L752,227.2z" class="st18"/>
        <path d="M757.7,240.4c0-6.4,1.4-11.3,4.2-14.8c2.8-3.4,6.9-5.1,12.2-5.1c2.5-0.1,5,0.4,7.3,1.4c2,0.9,3.8,2.3,5.1,4
			c1.4,1.9,2.4,4,3,6.3c0.7,2.7,1,5.4,1,8.2c0,6.4-1.4,11.3-4.2,14.8c-2.8,3.4-6.9,5.1-12.2,5.1c-2.5,0.1-5-0.4-7.3-1.4
			c-2-0.9-3.8-2.3-5.1-4c-1.4-1.9-2.4-4-3-6.3C758,245.9,757.7,243.1,757.7,240.4z M763.9,240.4c0,1.9,0.2,3.7,0.6,5.5
			c0.3,1.6,0.9,3.2,1.8,4.6c0.8,1.3,1.9,2.4,3.2,3.2c1.4,0.8,3.1,1.3,4.7,1.2c6.8,0.1,10.2-4.8,10.2-14.6c0-1.9-0.2-3.8-0.6-5.6
			c-0.3-1.6-0.9-3.2-1.8-4.6c-0.8-1.3-1.9-2.4-3.2-3.1c-1.4-0.8-3.1-1.2-4.7-1.2C767.3,225.8,763.9,230.6,763.9,240.4L763.9,240.4z" class="st18"/>
        <path d="M809.4,242.3h-3.5v17.1h-6v-53.1h6v32.3l3.1-1.1l11.6-16.1h7l-11.5,15.2l-3.1,2.5l3.7,3l12.5,17.2h-7.4
			L809.4,242.3z" class="st18"/>
        <path d="M862.3,256.3c-1.7,1.3-3.6,2.3-5.7,2.9c-2.3,0.7-4.8,1.1-7.2,1.1c-2.5,0.1-5.1-0.4-7.4-1.4
			c-2-0.9-3.8-2.3-5.2-4c-1.4-1.9-2.4-4-3-6.3c-0.7-2.7-1-5.4-1-8.2c0-6.5,1.4-11.4,4.3-14.8c2.8-3.4,6.9-5.1,12.2-5.1
			c1.7,0,3.4,0.2,5.1,0.6c1.7,0.4,3.2,1.1,4.6,2.2c1.5,1.2,2.6,2.8,3.3,4.5c0.9,2.5,1.4,5.1,1.3,7.7c0,1.9-0.2,3.7-0.5,5.5H839
			c0,2,0.2,4,0.7,5.9c0.4,1.6,1.1,3.1,2.1,4.4c1,1.2,2.3,2.2,3.7,2.7c1.8,0.7,3.7,1,5.6,0.9c1.7,0,3.5-0.3,5.1-0.9
			c1.4-0.4,2.7-1.2,3.8-2.1L862.3,256.3z M849.4,225.8c-2.6-0.1-5.1,0.7-7.1,2.4c-1.8,1.6-2.8,4.2-3.2,8h18.6c0-3.8-0.7-6.5-2.2-8.1
			C853.9,226.5,851.7,225.6,849.4,225.8L849.4,225.8z" class="st18"/>
        <path d="M890.6,227.2c-1.4-0.5-2.8-0.7-4.3-0.8c-1.9-0.1-3.7,0.5-5.1,1.8c-1.3,1.2-2.1,2.8-2.3,4.5v26.6h-6v-37.9
			h4.2l1.1,4.6h0.3c0.8-1.6,2-2.9,3.4-4c1.5-1,3.3-1.5,5.1-1.4c1.7,0,3.3,0.3,4.9,0.8L890.6,227.2z" class="st18"/>
        <path d="M914.9,249c0.1-1.3-0.4-2.6-1.3-3.6c-1-0.9-2.1-1.6-3.3-2.2c-1.3-0.6-2.8-1.1-4.3-1.7c-1.5-0.5-3-1.2-4.3-2
			s-2.5-1.9-3.3-3.2c-1-1.6-1.4-3.4-1.3-5.3c0-3.6,1-6.3,3.1-8s4.9-2.5,8.5-2.5c2.3,0,4.6,0.2,6.8,0.7c1.6,0.4,3.2,1,4.8,1.7l-1.4,5
			c-1.3-0.6-2.7-1.1-4.2-1.5c-1.7-0.4-3.5-0.7-5.2-0.6c-1.7-0.1-3.4,0.3-4.8,1.1c-1,0.8-1.5,2.1-1.5,3.9c-0.1,1.2,0.4,2.3,1.3,3.1
			c1,0.8,2.1,1.5,3.3,2c1.3,0.6,2.8,1.2,4.3,1.7s3,1.3,4.3,2.2s2.5,2.1,3.3,3.4c1,1.7,1.4,3.6,1.3,5.5c0,1.6-0.3,3.1-0.8,4.6
			c-0.5,1.4-1.3,2.6-2.4,3.6c-1.2,1.1-2.6,1.9-4.1,2.4c-1.8,0.6-3.8,0.9-5.7,0.9c-2.4,0-4.9-0.2-7.3-0.8c-1.7-0.5-3.4-1.1-5-2
			l1.8-5.2c1.4,0.8,2.9,1.4,4.5,1.8c1.8,0.6,3.7,0.8,5.6,0.8c1.9,0.1,3.7-0.4,5.3-1.3C914.2,252.8,914.9,251.2,914.9,249z" class="st18"/>
    </g>
</svg>
